<svg version="1.1" xmlns="http://www.w3.org/2000/svg" xmlns:xlink="http://www.w3.org/1999/xlink" x="0" y="0" width="138" height="20" viewBox="0, 0, 138, 20"> <g> <path class="text" d="M100.105,0.227 C101.66,0.251 103.261,0.477 104.656,1.186 L103.912,4.335 C102.885,3.478 101.894,3.346 100.595,3.267 C99.207,3.335 98.388,3.805 97.987,5.145 C97.941,5.299 97.957,5.465 97.942,5.624 C97.942,6.685 98.532,7.291 99.498,7.785 L101.374,8.743 C104.331,10.253 105.346,11.838 105.346,14.083 C105.311,16.42 104.211,18.395 101.979,19.364 C100.511,20.001 99.39,19.971 97.826,19.971 C96.569,19.887 95.216,19.714 94.079,19.129 L94.864,15.891 C94.864,15.891 96.079,16.932 98.492,16.932 C100.433,16.932 101.376,15.81 101.376,14.441 C101.376,13.126 100.19,12.357 99.113,11.783 L97.595,10.975 C95.152,9.675 94.113,8.065 94.113,6.051 C94.121,3.894 95.113,1.834 97.151,0.855 C98.082,0.408 98.436,0.424 99.456,0.253 z M25.109,0.574 L31.386,19.741 L27.104,19.741 L26.075,16.159 L20.131,16.159 L19.13,19.741 L15.543,19.741 L20.715,3.015 C20.855,2.55 20.938,2.277 20.938,2.003 C20.912,1.478 20.71,0.987 20.382,0.574 z M23.103,5.195 C23.103,5.195 22.825,6.52 22.575,7.368 L20.827,13.4 L25.394,13.4 L23.632,7.368 C23.381,6.52 23.103,5.195 23.103,5.195 z z M81.507,0.574 L80.729,3.725 L75.029,3.725 L75.029,8.507 L80.507,8.507 L79.756,11.595 L75.029,11.595 L75.029,16.542 L81.73,16.542 L80.951,19.741 L71.191,19.741 L71.191,0.574 z M37.934,0.574 L37.934,19.741 L34.069,19.741 L34.069,0.574 z M67.465,0.574 L66.742,3.725 L61.042,3.725 L61.042,8.507 L66.492,8.507 L65.769,11.595 L61.042,11.595 L61.042,19.741 L57.149,19.741 L57.149,0.574 z M53.534,0.574 L52.811,3.725 L47.055,3.725 L47.055,8.507 L52.533,8.507 L51.81,11.595 L47.055,11.595 L47.055,19.741 L43.218,19.741 L43.218,0.574 z M119.638,0.582 L118.887,3.725 L113.159,3.725 L113.159,8.507 L118.637,8.507 L117.886,11.595 L113.159,11.595 L113.159,16.542 L119.86,16.542 L119.081,19.741 L109.321,19.741 L109.321,0.582 z M89.877,0.574 L89.875,19.741 L86.012,19.741 L86.012,0.574 z M6.451,0.227 C8.74,0.244 11.318,0.805 12.575,2.887 C13.875,5.039 13.641,8.218 11.753,9.976 C10.883,10.787 10.488,10.851 9.537,11.185 C9.537,11.185 10.121,11.869 10.483,12.661 L13.847,19.741 L9.509,19.741 L5.783,11.869 C4.838,9.873 4.226,9.464 4.226,9.464 C4.616,9.491 4.977,9.491 5.283,9.491 C7.223,9.456 8.876,8.976 9.363,6.933 C9.411,6.734 9.45,6.127 9.409,5.846 C9.332,5.325 9.226,4.813 8.845,4.398 C8.021,3.499 6.938,3.351 5.783,3.288 C5.143,3.292 4.502,3.307 3.865,3.37 L3.865,19.741 L0.029,19.741 L0.029,0.391 C1.98,0.397 3.929,0.302 5.878,0.234 z M127.506,0.574 L132.067,7.086 C133.291,8.809 134.598,10.83 134.598,10.83 C134.598,10.83 134.515,8.809 134.515,7.086 L134.515,0.574 L137.74,0.574 L137.74,19.741 L136.183,19.741 L129.843,10.502 C128.648,8.754 127.424,6.813 127.424,6.813 C127.424,6.813 127.48,8.754 127.48,10.502 L127.48,19.741 L124.254,19.741 L124.254,3.725 C124.283,2.519 123.873,1.431 123.002,0.574 z"></path> </g> </svg>